<svg xmlns="http://www.w3.org/2000/svg" width="32" height="32" viewBox="0 0 32 32">
	<rect width="32" height="32" fill="none"/>
	<path d="M28.45,9.69a3.26,3.26,0,0,0-2.3-2.3c-2-.5-10.15-.5-10.15-.5s-8.12,0-10.15.56a3.26,3.26,0,0,0-2.3,2.3A33.52,33.52,0,0,0,3,16a34.19,34.19,0,0,0,.55,6.31,3.26,3.26,0,0,0,2.3,2.3c2,.56,10.15.56,10.15.56s8.12,0,10.15-.56a3.26,3.26,0,0,0,2.3-2.3A34.19,34.19,0,0,0,29,16,34.16,34.16,0,0,0,28.45,9.69Z" fill="red"/>
	<polygon points="13.35 19.85 20.13 15.99 13.35 12.13 13.35 19.85" fill="#fff"/>
</svg>
