<svg xmlns="http://www.w3.org/2000/svg" xmlns:xlink="http://www.w3.org/1999/xlink" width="32" height="32" viewBox="0 0 32 32">
	<rect width="32" height="32" fill="none"/>
	<path d="M26,16a10,10,0,1,0-11.56,9.88v-7H11.9V16h2.54V13.8a3.52,3.52,0,0,1,3.77-3.89,15.72,15.72,0,0,1,2.24.19v2.46H19.19a1.45,1.45,0,0,0-1.63,1.56V16h2.78l-.45,2.89H17.56v7A10,10,0,0,0,26,16Z" fill="#1877f2"/>
	<path d="M19.89,18.89,20.34,16H17.56V14.12a1.45,1.45,0,0,1,1.63-1.56h1.26V10.1a15.72,15.72,0,0,0-2.24-.19,3.52,3.52,0,0,0-3.77,3.89V16H11.9v2.89h2.54v7a10.2,10.2,0,0,0,3.12,0v-7Z" fill="#fff"/>
</svg>