<svg xmlns="http://www.w3.org/2000/svg" width="18" height="18" viewBox="0 0 18 18">
  <g id="Layer_2" data-name="Layer 2">
    <g id="Layer_1-2" data-name="Layer 1">
      <path d="M16.6,18l-6.3-6.3a5.85,5.85,0,0,1-1.72,1A6.22,6.22,0,0,1,6.5,13a6.26,6.26,0,0,1-4.61-1.89A6.26,6.26,0,0,1,0,6.5,6.26,6.26,0,0,1,1.89,1.89,6.26,6.26,0,0,1,6.5,0a6.26,6.26,0,0,1,4.61,1.89A6.26,6.26,0,0,1,13,6.5a6.22,6.22,0,0,1-.35,2.08,5.85,5.85,0,0,1-1,1.72L18,16.6ZM6.5,11A4.47,4.47,0,0,0,11,6.5,4.47,4.47,0,0,0,6.5,2,4.47,4.47,0,0,0,2,6.5,4.47,4.47,0,0,0,6.5,11Z" fill="#fff"/>
    </g>
  </g>
</svg>
